<svg xmlns="http://www.w3.org/2000/svg" viewBox="6 6 52 52">
  <!-- Julia dots as chronograph subdials (green top, red bottom-left, purple bottom-right) -->
  <circle cx="32" cy="17" r="11" fill="#389826"/>
  <circle cx="17" cy="41" r="11" fill="#CB3C33"/>
  <circle cx="47" cy="41" r="11" fill="#9558B2"/>

  <!-- Outer timing ticks ring -->
  <g stroke="#fff" stroke-width="2" stroke-linecap="round">
    <line x1="32" y1="7" x2="32" y2="10"/>
    <line x1="44.5" y1="10.5" x2="42.3" y2="13"/>
    <line x1="54.5" y1="19.5" x2="51" y2="21.7"/>
    <line x1="57" y1="32" x2="54" y2="32"/>
    <line x1="54.5" y1="44.5" x2="51" y2="42.3"/>
    <line x1="44.5" y1="53.5" x2="42.3" y2="51"/>
    <line x1="32" y1="57" x2="32" y2="54"/>
    <line x1="19.5" y1="53.5" x2="21.7" y2="51"/>
    <line x1="9.5" y1="44.5" x2="13" y2="42.3"/>
    <line x1="7" y1="32" x2="10" y2="32"/>
    <line x1="9.5" y1="19.5" x2="13" y2="21.7"/>
    <line x1="19.5" y1="10.5" x2="21.7" y2="13"/>
  </g>

  <!-- Stopwatch hands -->
  <line x1="32" y1="32" x2="32" y2="12" stroke="#fff" stroke-width="3" stroke-linecap="round"/>
  <line x1="32" y1="32" x2="48" y2="43" stroke="#fff" stroke-width="2.5" stroke-linecap="round"/>

  <!-- Center dot -->
  <circle cx="32" cy="32" r="2" fill="#fff"/>
</svg>
